<svg width="36" height="36" viewBox="0 0 36 36" fill="none" xmlns="http://www.w3.org/2000/svg">
<path d="M18 9.66C16.4914 9.66028 15.0112 10.0701 13.7173 10.8456C12.4233 11.6212 11.3642 12.7335 10.6529 14.0638C9.94149 15.3941 9.6046 16.8926 9.67811 18.3994C9.75163 19.9062 10.2328 21.3648 11.0703 22.6195C11.9077 23.8743 13.0701 24.8782 14.4334 25.5241C15.7967 26.1701 17.3098 26.4338 18.8112 26.2872C20.3127 26.1407 21.7461 25.5893 22.9588 24.6919C24.1714 23.7945 25.1177 22.5847 25.6967 21.1917C25.9809 20.5083 25.3 19.8217 24.615 20.1C23.441 20.5756 22.1374 20.6246 20.931 20.2387C19.7245 19.8527 18.6915 19.0562 18.0115 17.9875C17.3315 16.9188 17.0475 15.6456 17.2089 14.3893C17.3703 13.1329 17.9669 11.9729 18.895 11.1108L18.9592 11.0442C19.4183 10.5192 19.0533 9.66667 18.3275 9.66667H18.1058L18.0492 9.66167L17.9992 9.66H18Z" fill="white"/>
</svg>
