<svg width="36" height="36" viewBox="0 0 36 36" fill="none" xmlns="http://www.w3.org/2000/svg">
<path d="M17.9999 14.6667C18.6521 14.6667 19.2899 14.858 19.8345 15.2169C20.379 15.5758 20.8062 16.0866 21.0633 16.686C21.3204 17.2853 21.396 17.947 21.2808 18.5889C21.1656 19.2308 20.8646 19.8248 20.4151 20.2973C19.9657 20.7699 19.3874 21.1002 18.7521 21.2474C18.1167 21.3945 17.4522 21.3521 16.8407 21.1253C16.2292 20.8985 15.6977 20.4973 15.312 19.9714C14.9263 19.4455 14.7034 18.818 14.6708 18.1667L14.6666 18L14.6708 17.8333C14.7135 16.9792 15.0829 16.1742 15.7026 15.5848C16.3222 14.9954 17.1447 14.6667 17.9999 14.6667Z" fill="white"/>
<path d="M17.9999 11.3333C18.204 11.3334 18.401 11.4083 18.5536 11.5439C18.7061 11.6796 18.8035 11.8665 18.8274 12.0692L18.8333 12.175C18.833 12.3874 18.7517 12.5917 18.6059 12.7461C18.4601 12.9006 18.2608 12.9935 18.0488 13.006C17.8367 13.0184 17.6279 12.9494 17.4651 12.8131C17.3022 12.6768 17.1975 12.4834 17.1724 12.2725L17.1666 12.1667C17.1666 11.9457 17.2544 11.7337 17.4107 11.5774C17.5669 11.4211 17.7789 11.3333 17.9999 11.3333Z" fill="white"/>
<path d="M22.1666 13C22.3707 13 22.5677 13.075 22.7202 13.2106C22.8728 13.3462 22.9702 13.5331 22.9941 13.7358L22.9999 13.8417C22.9997 14.0541 22.9184 14.2584 22.7725 14.4128C22.6267 14.5673 22.4275 14.6602 22.2154 14.6726C22.0034 14.6851 21.7946 14.6161 21.6317 14.4798C21.4688 14.3435 21.3642 14.1501 21.3391 13.9392L21.3333 13.8333C21.3333 13.6123 21.421 13.4004 21.5773 13.2441C21.7336 13.0878 21.9456 13 22.1666 13Z" fill="white"/>
<path d="M23.8333 17.1667C24.0374 17.1667 24.2344 17.2416 24.3869 17.3773C24.5394 17.5129 24.6369 17.6998 24.6608 17.9025L24.6666 18.0083C24.6664 18.2207 24.585 18.425 24.4392 18.5795C24.2934 18.7339 24.0941 18.8269 23.8821 18.8393C23.6701 18.8518 23.4613 18.7828 23.2984 18.6464C23.1355 18.5101 23.0308 18.3167 23.0058 18.1058L22.9999 18C22.9999 17.779 23.0877 17.567 23.244 17.4107C23.4003 17.2545 23.6122 17.1667 23.8333 17.1667Z" fill="white"/>
<path d="M22.1666 21.3333C22.3707 21.3334 22.5677 21.4083 22.7202 21.5439C22.8728 21.6796 22.9702 21.8665 22.9941 22.0692L22.9999 22.175C22.9997 22.3874 22.9184 22.5917 22.7725 22.7461C22.6267 22.9006 22.4275 22.9935 22.2154 23.006C22.0034 23.0184 21.7946 22.9494 21.6317 22.8131C21.4688 22.6768 21.3642 22.4834 21.3391 22.2725L21.3333 22.1667C21.3333 21.9457 21.421 21.7337 21.5773 21.5774C21.7336 21.4211 21.9456 21.3333 22.1666 21.3333Z" fill="white"/>
<path d="M17.9999 23C18.204 23 18.401 23.075 18.5536 23.2106C18.7061 23.3462 18.8035 23.5331 18.8274 23.7358L18.8333 23.8417C18.833 24.0541 18.7517 24.2584 18.6059 24.4128C18.4601 24.5673 18.2608 24.6602 18.0488 24.6726C17.8367 24.6851 17.6279 24.6161 17.4651 24.4798C17.3022 24.3435 17.1975 24.1501 17.1724 23.9392L17.1666 23.8333C17.1666 23.6123 17.2544 23.4004 17.4107 23.2441C17.5669 23.0878 17.7789 23 17.9999 23Z" fill="white"/>
<path d="M13.8333 21.3333C14.0374 21.3334 14.2344 21.4083 14.3869 21.5439C14.5394 21.6796 14.6369 21.8665 14.6608 22.0692L14.6666 22.175C14.6663 22.3874 14.585 22.5917 14.4392 22.7461C14.2934 22.9006 14.0941 22.9935 13.8821 23.006C13.6701 23.0184 13.4613 22.9494 13.2984 22.8131C13.1355 22.6768 13.0308 22.4834 13.0058 22.2725L12.9999 22.1667C12.9999 21.9457 13.0877 21.7337 13.244 21.5774C13.4003 21.4211 13.6122 21.3333 13.8333 21.3333Z" fill="white"/>
<path d="M12.1666 17.1667C12.3707 17.1667 12.5677 17.2416 12.7202 17.3773C12.8728 17.5129 12.9702 17.6998 12.9941 17.9025L12.9999 18.0083C12.9997 18.2207 12.9184 18.425 12.7725 18.5795C12.6267 18.7339 12.4275 18.8269 12.2154 18.8393C12.0034 18.8518 11.7946 18.7828 11.6317 18.6464C11.4688 18.5101 11.3642 18.3167 11.3391 18.1058L11.3333 18C11.3333 17.779 11.421 17.567 11.5773 17.4107C11.7336 17.2545 11.9456 17.1667 12.1666 17.1667Z" fill="white"/>
<path d="M13.8333 13C14.0374 13 14.2344 13.075 14.3869 13.2106C14.5394 13.3462 14.6369 13.5331 14.6608 13.7358L14.6666 13.8417C14.6663 14.0541 14.585 14.2584 14.4392 14.4128C14.2934 14.5673 14.0941 14.6602 13.8821 14.6726C13.6701 14.6851 13.4613 14.6161 13.2984 14.4798C13.1355 14.3435 13.0308 14.1501 13.0058 13.9392L12.9999 13.8333C12.9999 13.6123 13.0877 13.4004 13.244 13.2441C13.4003 13.0878 13.6122 13 13.8333 13Z" fill="white"/>
</svg>
